<?xml version="1.0" encoding="UTF-8"?>
<svg version="1.1" xmlns="http://www.w3.org/2000/svg" width="512" height="512">
<path d="M0 0 C147.84 0 295.68 0 448 0 C448 88.44 448 176.88 448 268 C300.16 268 152.32 268 0 268 C0 179.56 0 91.12 0 0 Z M161 63 C160.03578125 63.86109375 159.0715625 64.7221875 158.078125 65.609375 C139.45527415 82.80152548 130.31827694 106.79951341 128.76171875 131.83203125 C128.26359998 158.54692722 137.53067975 181.68969494 156 201 C156.60199219 201.67675781 157.20398438 202.35351562 157.82421875 203.05078125 C172.01874127 218.41535118 195.07636207 229.12818175 216 230 C217.134375 230.0515625 218.26875 230.103125 219.4375 230.15625 C247.31609416 231.00031603 271.2210206 220.89104908 291.51293945 201.87280273 C308.59603102 185.36031388 318.57677096 162.21487466 319.41943359 138.48168945 C319.65410796 111.11675609 309.34869426 85.44240354 290.3125 65.8125 C272.82646134 48.4666637 248.61001427 40.26992829 224.3125 39.8125 C201.51067923 40.05689251 177.98399946 47.33089082 161 63 Z " fill="#4DDAA4" transform="translate(32,49)"/>
<path d="M0 0 C19.07808864 15.33475596 29.43474347 33.40198127 32.625 57.6875 C34.37973895 76.6771407 28.35219702 98.28532379 16.59375 113.27734375 C14.35090953 115.84002591 12.0269856 118.27375916 9.625 120.6875 C8.88636719 121.4609375 8.14773438 122.234375 7.38671875 123.03125 C-7.50463708 137.64730345 -28.31641007 143 -48.63916016 143 C-67.41602739 142.72943109 -85.34289168 136.45116915 -99.375 123.6875 C-100.60283203 122.61435547 -100.60283203 122.61435547 -101.85546875 121.51953125 C-117.28633825 107.20920901 -123.82633266 86.99863086 -125.66015625 66.5 C-126.33978543 44.75186626 -117.78299753 24.68949214 -103.12353516 8.91894531 C-76.26460468 -18.75389215 -31.20310207 -22.57330687 0 0 Z M-90.75 44.4375 C-92.42629094 46.75851823 -93.02262959 47.8834256 -93.375 50.6875 C-92.68320614 53.36235211 -92.68320614 53.36235211 -91.4375 56.25 C-90.97472656 57.384375 -90.51195312 58.51875 -90.03515625 59.6875 C-89.77234863 60.3165625 -89.50954102 60.945625 -89.23876953 61.59375 C-88.27614401 63.92712379 -87.35503646 66.27507255 -86.43359375 68.625 C-85.7485484 70.33379584 -85.0623546 72.04213173 -84.375 73.75 C-84.05539307 74.57121338 -83.73578613 75.39242676 -83.40649414 76.23852539 C-81.52070394 80.82970471 -79.98707346 84.32113091 -75.375 86.6875 C-70.14471084 86.31390792 -65.73414197 84.83216021 -60.984375 82.73046875 C-60.28988251 82.43120987 -59.59539001 82.13195099 -58.87985229 81.82362366 C-56.62449648 80.84912141 -54.37472116 79.86243228 -52.125 78.875 C-50.56324096 78.19635831 -49.00122661 77.5183039 -47.43896484 76.84082031 C-43.49877775 75.12897359 -39.5636526 73.40584213 -35.63049316 71.67791748 C-33.48077454 70.73394703 -31.32995375 69.79254163 -29.17871094 68.85205078 C-25.4494022 67.2207773 -21.72393565 65.5810059 -18 63.9375 C-16.89108398 63.44918701 -15.78216797 62.96087402 -14.63964844 62.45776367 C-13.61645508 62.00248291 -12.59326172 61.54720215 -11.5390625 61.078125 C-10.65686035 60.68657227 -9.7746582 60.29501953 -8.86572266 59.89160156 C-3.80686549 57.68507704 -3.80686549 57.68507704 -0.375 53.6875 C-0.01980097 49.85135043 0.17224594 47.54120366 -1.9375 44.25 C-5.32548858 42.07821245 -7.37146392 42.36520276 -11.375 42.6875 C-14.33782821 43.59293422 -17.10771737 44.83650933 -19.921875 46.125 C-20.73255432 46.48335937 -21.54323364 46.84171875 -22.378479 47.2109375 C-24.96620897 48.35776039 -27.54566476 49.52193658 -30.125 50.6875 C-32.65248367 51.8158496 -35.18158516 52.94051328 -37.71081543 54.06494141 C-39.38965648 54.81174266 -41.06780219 55.56010909 -42.74523926 56.31005859 C-51.56256446 60.24368572 -60.46169143 63.97762277 -69.375 67.6875 C-69.50406738 66.95233154 -69.63313477 66.21716309 -69.76611328 65.4597168 C-70.69652854 61.22360401 -72.49117666 57.44947248 -74.25 53.5 C-74.77787109 52.27120117 -74.77787109 52.27120117 -75.31640625 51.01757812 C-75.66316406 50.23447266 -76.00992188 49.45136719 -76.3671875 48.64453125 C-76.68026855 47.93272705 -76.99334961 47.22092285 -77.31591797 46.48754883 C-78.39010751 44.36265275 -78.39010751 44.36265275 -81.375 42.6875 C-85.33607524 42.2553827 -87.48852623 42.0343088 -90.75 44.4375 Z " fill="#4DD9A4" transform="translate(302.375,119.3125)"/>
<path d="M0 0 C147.84 0 295.68 0 448 0 C448 8.25 448 16.5 448 25 C300.16 25 152.32 25 0 25 C0 16.75 0 8.5 0 0 Z " fill="#4DDAA4" transform="translate(32,333)"/>
<path d="M0 0 C1.75883766 -0.00569504 1.75883766 -0.00569504 3.5532074 -0.01150513 C7.38593268 -0.01884673 11.2178805 0.00238191 15.05053711 0.02490234 C17.73849089 0.02729058 20.42641322 0.02829257 23.11436462 0.02767944 C28.72998489 0.02954328 34.34538694 0.04678217 39.9609375 0.07421875 C46.42244922 0.105675 52.88372272 0.11621379 59.3453055 0.11474764 C65.60252001 0.11352037 71.85965838 0.12379118 78.1168499 0.14033127 C80.7612506 0.14666475 83.40565813 0.15063002 86.05006599 0.15211868 C89.75354704 0.15648759 93.45673826 0.17406501 97.16015625 0.1953125 C98.77599106 0.19395294 98.77599106 0.19395294 100.42446899 0.19256592 C116.52081291 0.32661837 129.41609657 3.6866283 141.26147461 15.07568359 C150.63860936 25.10287968 154.00816775 34.92092187 155.51538086 48.48583984 C86.21538086 48.48583984 16.91538086 48.48583984 -54.48461914 48.48583984 C-51.95891586 32.06876855 -47.13133353 19.90907882 -33.92211914 9.45849609 C-23.51512458 2.30368733 -12.46825427 -0.13033018 0 0 Z " fill="#4DDAA4" transform="translate(205.484619140625,414.51416015625)"/>
<path d="M0 0 C38.94 0 77.88 0 118 0 C122 21 122 21 122 25 C80.42 25 38.84 25 -4 25 C-3.06803236 16.61229122 -1.55527101 8.29477874 0 0 Z " fill="#4DDAA4" transform="translate(197,374)"/>
</svg>
