<?xml version="1.0" encoding="UTF-8"?>
<svg version="1.1" xmlns="http://www.w3.org/2000/svg" width="512" height="512">
<path d="M0 0 C0.62519531 0.43135254 1.25039063 0.86270508 1.89453125 1.30712891 C22.16620473 15.44259572 41.12793785 32.33056929 55.76904297 52.3203125 C56.99785707 53.9970759 58.24944508 55.65487153 59.50390625 57.3125 C81.96776636 87.41635315 95.8953247 123.07690061 102 160 C102.12842285 160.72316406 102.2568457 161.44632813 102.38916016 162.19140625 C112.19297913 219.1221145 96.19380528 282.06966436 63.53857422 329.10498047 C49.83872493 348.34624026 33.90225548 366.71991767 15 381 C14.37851074 381.47614746 13.75702148 381.95229492 13.11669922 382.44287109 C-19.30091843 407.15409423 -55.8556929 422.33423421 -96 429 C-96.7513623 429.13132324 -97.50272461 429.26264648 -98.27685547 429.39794922 C-122.08015284 433.41493171 -148.34641273 432.22770921 -172 428 C-172.7645752 427.8767334 -173.52915039 427.7534668 -174.31689453 427.62646484 C-219.78543775 420.25398779 -262.21240494 396.90500819 -295 365 C-295.55171875 364.46874512 -296.1034375 363.93749023 -296.671875 363.39013672 C-338.20853293 323.29440069 -364.70464216 265.41113337 -366.26423645 207.45831299 C-366.32603837 203.76340961 -366.3306164 200.07029798 -366.3125 196.375 C-366.31067719 195.59452301 -366.30885437 194.81404602 -366.30697632 194.00991821 C-366.25539851 180.8118788 -365.4097351 167.99869025 -363 155 C-362.83902832 154.08605469 -362.67805664 153.17210937 -362.51220703 152.23046875 C-354.39393309 107.12374785 -332.59566437 65.49722234 -300.6875 32.734375 C-299.09197277 31.09452757 -297.51375075 29.43959714 -295.9375 27.78125 C-289.32733317 20.90991109 -282.24020003 14.92739293 -274.61376953 9.21240234 C-273.18860026 8.14169273 -271.77861319 7.05083907 -270.37109375 5.95703125 C-239.94792527 -17.13410602 -203.51784341 -31.04511307 -166 -37 C-165.25057129 -37.12842285 -164.50114258 -37.2568457 -163.72900391 -37.38916016 C-108.19485374 -46.69038231 -46.03393829 -31.84014065 0 0 Z " fill="#5DF5CC" transform="translate(387,60)"/>
<path d="M0 0 C0.62519531 0.43135254 1.25039063 0.86270508 1.89453125 1.30712891 C22.16620473 15.44259572 41.12793785 32.33056929 55.76904297 52.3203125 C56.99785707 53.9970759 58.24944508 55.65487153 59.50390625 57.3125 C81.96776636 87.41635315 95.8953247 123.07690061 102 160 C102.12842285 160.72316406 102.2568457 161.44632813 102.38916016 162.19140625 C112.19297913 219.1221145 96.19380528 282.06966436 63.53857422 329.10498047 C49.83872493 348.34624026 33.90225548 366.71991767 15 381 C14.37851074 381.47614746 13.75702148 381.95229492 13.11669922 382.44287109 C-19.30091843 407.15409423 -55.8556929 422.33423421 -96 429 C-96.7513623 429.13132324 -97.50272461 429.26264648 -98.27685547 429.39794922 C-122.08015284 433.41493171 -148.34641273 432.22770921 -172 428 C-172.7645752 427.8767334 -173.52915039 427.7534668 -174.31689453 427.62646484 C-219.78543775 420.25398779 -262.21240494 396.90500819 -295 365 C-295.55171875 364.46874512 -296.1034375 363.93749023 -296.671875 363.39013672 C-338.20853293 323.29440069 -364.70464216 265.41113337 -366.26423645 207.45831299 C-366.32603837 203.76340961 -366.3306164 200.07029798 -366.3125 196.375 C-366.31067719 195.59452301 -366.30885437 194.81404602 -366.30697632 194.00991821 C-366.25539851 180.8118788 -365.4097351 167.99869025 -363 155 C-362.83902832 154.08605469 -362.67805664 153.17210937 -362.51220703 152.23046875 C-354.39393309 107.12374785 -332.59566437 65.49722234 -300.6875 32.734375 C-299.09197277 31.09452757 -297.51375075 29.43959714 -295.9375 27.78125 C-289.32733317 20.90991109 -282.24020003 14.92739293 -274.61376953 9.21240234 C-273.18860026 8.14169273 -271.77861319 7.05083907 -270.37109375 5.95703125 C-239.94792527 -17.13410602 -203.51784341 -31.04511307 -166 -37 C-165.25057129 -37.12842285 -164.50114258 -37.2568457 -163.72900391 -37.38916016 C-108.19485374 -46.69038231 -46.03393829 -31.84014065 0 0 Z M-213 22 C-213.78568359 22.37495605 -214.57136719 22.74991211 -215.38085938 23.13623047 C-243.31789893 36.69258293 -267.68637073 56.92052115 -286 82 C-286.41459473 82.56493164 -286.82918945 83.12986328 -287.25634766 83.71191406 C-303.14466255 105.66461549 -314.79052322 131.36960609 -320 158 C-320.14808105 158.73347656 -320.29616211 159.46695313 -320.44873047 160.22265625 C-326.0274108 188.99879852 -324.34961266 219.92970686 -316 248 C-315.7736084 248.77601563 -315.5472168 249.55203125 -315.31396484 250.3515625 C-307.53339435 276.56412473 -295.056645 300.41082009 -277 321 C-276.26136719 321.84820312 -275.52273438 322.69640625 -274.76171875 323.5703125 C-272.54044986 326.07931052 -270.28397562 328.54802617 -268 331 C-267.31550781 331.73863281 -266.63101563 332.47726562 -265.92578125 333.23828125 C-244.11510259 355.93590064 -214.71868417 371.58079988 -185 381 C-184.32018066 381.22123535 -183.64036133 381.4424707 -182.93994141 381.67041016 C-139.36399115 395.48992191 -87.46863374 389.03480882 -47 369 C-46.32743164 368.67451172 -45.65486328 368.34902344 -44.96191406 368.01367188 C-17.70286316 354.71841984 6.14867152 334.48410056 24 310 C24.41991211 309.42443359 24.83982422 308.84886719 25.27246094 308.25585938 C55.23484115 266.57517121 66.90626599 214.49273876 59.1015625 163.875 C53.84774191 134.01963711 41.51653211 105.02558299 23 81 C22.33355469 80.12214844 21.66710937 79.24429688 20.98046875 78.33984375 C3.04847857 55.29486248 -18.90971801 37.14292203 -45 24 C-46.04994141 23.46898682 -46.04994141 23.46898682 -47.12109375 22.92724609 C-99.00308401 -2.80844321 -160.90212737 -2.903317 -213 22 Z " fill="#212529" transform="translate(387,60)"/>
<path d="M0 0 C6.06736424 2.64163704 9.42476362 6.40518757 12.25 12.3125 C13.69128897 19.51894486 13.42812737 25.83700606 9.875 32.4375 C6.84759233 36.19680008 3.43799175 39.55933133 0.01025391 42.94921875 C-1.01445433 43.9807114 -2.03809786 45.01326268 -3.0607605 46.04678345 C-5.83076123 48.83950012 -8.61625254 51.61626035 -11.40555525 54.38968277 C-14.33515052 57.30656207 -17.2524615 60.23568749 -20.17178345 63.1628418 C-25.08066199 68.08080753 -29.99996344 72.98816228 -34.92529297 77.88964844 C-40.59507347 83.5322954 -46.24671945 89.19262513 -51.88913667 94.86262417 C-56.75229711 99.74859196 -61.62528128 104.62460119 -66.50636733 109.49266148 C-69.41324558 112.39179902 -72.31677136 115.29407799 -75.21143723 118.20541382 C-77.93998775 120.9485771 -80.68080461 123.67890221 -83.43092728 126.40043259 C-84.42956495 127.39254486 -85.42413344 128.38877575 -86.41390991 129.38972855 C-100.8393251 143.96273249 -116.44517892 151.59556408 -137.0625 151.8125 C-162.37258292 151.89426122 -177.71430588 137.86900664 -194.76246548 120.95773888 C-196.36558285 119.36164404 -197.96625399 117.76312965 -199.56640625 116.1640625 C-200.70785294 115.02584082 -201.8493695 113.8876892 -202.99095154 112.74960327 C-205.35648109 110.38999467 -207.72000396 108.02839751 -210.08227539 105.66552734 C-213.10318653 102.6445136 -216.13098332 99.63050044 -219.16047764 96.61809731 C-221.50849914 94.28119369 -223.8519623 91.9397599 -226.19416618 89.59702682 C-227.30928012 88.48308823 -228.42600512 87.37075986 -229.54440498 86.26012039 C-231.10154444 84.71280041 -232.65219529 83.15924689 -234.20141602 81.60400391 C-235.08233414 80.7245108 -235.96325226 79.8450177 -236.87086487 78.93887329 C-242.42570054 72.77477187 -243.55514463 67.35730901 -243.46875 59.2578125 C-242.75422897 53.39549225 -239.40117206 49.36021803 -235.0625 45.5625 C-229.05778438 41.21866317 -224.48191017 40.64742736 -217.125 41.4375 C-205.73615361 44.52846195 -196.85065132 56.58843285 -188.8366642 64.74236679 C-187.19516334 66.41101859 -185.54889344 68.07482986 -183.90116882 69.73733521 C-179.22448628 74.45629273 -174.55096486 79.17826725 -169.89331055 83.91601562 C-167.02458015 86.83338388 -164.14607413 89.74079243 -161.26103783 92.64203262 C-160.17177909 93.74113996 -159.08617318 94.84388076 -158.00444984 95.95040512 C-156.49304695 97.49573829 -154.96946017 99.0280369 -153.44262695 100.55810547 C-152.15217216 101.86640823 -152.15217216 101.86640823 -150.83564758 103.20114136 C-146.05158907 107.14812091 -140.87825175 109.17640718 -134.63367271 108.80947018 C-125.01397497 107.38312203 -118.32156587 100.31359218 -111.84521484 93.66186523 C-110.86277483 92.67144821 -109.87918443 91.68217118 -108.89454651 90.69393921 C-106.79147769 88.57853817 -104.69643651 86.45561391 -102.60743332 84.32632256 C-99.29945497 80.95504878 -95.97261311 77.60280865 -92.64297485 74.25294495 C-86.17995838 67.74565175 -79.73543239 61.22022994 -73.29341888 54.69215393 C-65.08785558 46.3779939 -56.87598187 38.07017946 -48.64333308 29.78283077 C-45.33935718 26.45559745 -42.04575816 23.11852812 -38.76003623 19.77327144 C-36.71082508 17.69089403 -34.65326742 15.61691435 -32.59347343 13.54500961 C-31.1950226 12.13323388 -29.80674739 10.7114009 -28.41886902 9.28923035 C-19.85643005 0.70931857 -12.14665034 -4.20041352 0 0 Z " fill="#212629" transform="translate(371.125,180.5625)"/>
</svg>
